<svg xmlns="http://www.w3.org/2000/svg" viewBox="258 279 720 712">
<title>RATEL logo - scalable vector version</title>
<desc>Vectorized logo prepared from the approved raster concept. Colors are flattened for scalability.</desc>
<rect width="100%" height="100%" fill="#FFFFFF"/>
<path id="red" fill="#E30613" fill-rule="evenodd" d="M 786.0 876.0 L 773.0 886.0 L 764.0 892.0 L 761.0 893.0 L 756.0 897.0 L 753.0 898.0 L 746.0 903.0 L 737.0 907.0 L 735.0 909.0 L 713.0 920.0 L 711.0 920.0 L 704.0 924.0 L 702.0 924.0 L 697.0 927.0 L 692.0 928.0 L 684.0 932.0 L 682.0 932.0 L 660.0 940.0 L 657.0 940.0 L 653.0 942.0 L 642.0 944.0 L 642.0 983.0 L 653.0 978.0 L 655.0 978.0 L 675.0 968.0 L 677.0 968.0 L 711.0 951.0 L 717.0 947.0 L 749.0 919.0 L 749.0 918.0 L 765.0 902.0 L 765.0 901.0 L 771.0 895.0 L 771.0 894.0 L 776.0 889.0 L 779.0 884.0 Z M 831.0 421.0 L 839.0 437.0 L 846.0 464.0 L 845.0 497.0 L 836.0 524.0 L 845.0 537.0 L 843.0 569.0 L 837.0 593.0 L 826.0 615.0 L 811.0 631.0 L 769.0 651.0 L 754.0 661.0 L 741.0 673.0 L 725.0 698.0 L 719.0 716.0 L 717.0 731.0 L 719.0 761.0 L 735.0 789.0 L 735.0 777.0 L 739.0 760.0 L 752.0 734.0 L 773.0 711.0 L 805.0 687.0 L 826.0 667.0 L 827.0 670.0 L 807.0 717.0 L 797.0 752.0 L 796.0 781.0 L 801.0 801.0 L 807.0 783.0 L 822.0 766.0 L 871.0 738.0 L 889.0 720.0 L 895.0 710.0 L 898.0 710.0 L 892.0 738.0 L 874.0 785.0 L 845.0 838.0 L 813.0 883.0 L 850.0 850.0 L 865.0 834.0 L 896.0 793.0 L 910.0 768.0 L 921.0 742.0 L 929.0 714.0 L 932.0 693.0 L 932.0 667.0 L 929.0 647.0 L 919.0 617.0 L 909.0 599.0 L 905.0 618.0 L 893.0 647.0 L 874.0 674.0 L 869.0 679.0 L 867.0 678.0 L 880.0 648.0 L 891.0 607.0 L 894.0 583.0 L 893.0 539.0 L 886.0 506.0 L 871.0 470.0 L 849.0 438.0 Z M 278.0 369.0 L 273.0 415.0 L 273.0 476.0 L 278.0 530.0 L 289.0 588.0 L 298.0 574.0 L 311.0 560.0 L 304.0 512.0 L 301.0 474.0 L 302.0 409.0 L 304.0 391.0 L 308.0 389.0 L 611.0 318.0 L 928.0 389.0 L 931.0 391.0 L 933.0 409.0 L 934.0 468.0 L 928.0 534.0 L 918.0 585.0 L 925.0 596.0 L 936.0 621.0 L 944.0 595.0 L 953.0 552.0 L 960.0 497.0 L 962.0 428.0 L 957.0 368.0 L 617.0 290.0 L 611.0 290.0 Z M 927.0 161.0 L 932.0 166.0 L 933.0 170.0 L 898.0 273.0 L 1021.0 273.0 L 1030.0 251.0 L 943.0 251.0 L 942.0 250.0 L 972.0 161.0 Z M 766.0 161.0 L 772.0 169.0 L 738.0 273.0 L 877.0 273.0 L 884.0 251.0 L 783.0 251.0 L 782.0 247.0 L 789.0 229.0 L 862.0 228.0 L 868.0 207.0 L 798.0 206.0 L 797.0 202.0 L 803.0 185.0 L 898.0 185.0 L 906.0 161.0 Z M 631.0 273.0 L 665.0 273.0 L 689.0 202.0 L 693.0 187.0 L 695.0 185.0 L 743.0 185.0 L 751.0 161.0 L 606.0 161.0 L 597.0 185.0 L 656.0 185.0 L 657.0 186.0 L 656.0 193.0 L 650.0 209.0 L 650.0 212.0 L 645.0 225.0 L 645.0 228.0 L 636.0 254.0 Z M 598.0 273.0 L 588.0 245.0 L 577.0 219.0 L 576.0 214.0 L 572.0 206.0 L 571.0 201.0 L 567.0 193.0 L 556.0 161.0 L 512.0 161.0 L 514.0 166.0 L 415.0 273.0 L 453.0 273.0 L 473.0 252.0 L 551.0 252.0 L 559.0 273.0 Z M 529.0 192.0 L 531.0 194.0 L 531.0 196.0 L 533.0 199.0 L 533.0 201.0 L 534.0 202.0 L 535.0 207.0 L 537.0 210.0 L 537.0 212.0 L 538.0 213.0 L 538.0 215.0 L 539.0 216.0 L 539.0 218.0 L 541.0 221.0 L 541.0 223.0 L 542.0 224.0 L 542.0 226.0 L 543.0 227.0 L 543.0 228.0 L 542.0 229.0 L 497.0 229.0 L 496.0 228.0 L 496.0 227.0 L 502.0 221.0 L 502.0 220.0 L 525.0 196.0 L 525.0 195.0 L 528.0 192.0 Z M 266.0 161.0 L 278.0 171.0 L 243.0 273.0 L 279.0 273.0 L 294.0 227.0 L 297.0 223.0 L 303.0 228.0 L 310.0 237.0 L 332.0 237.0 L 364.0 273.0 L 407.0 273.0 L 375.0 236.0 L 378.0 234.0 L 390.0 232.0 L 400.0 226.0 L 405.0 221.0 L 412.0 208.0 L 417.0 191.0 L 417.0 177.0 L 415.0 172.0 L 409.0 166.0 L 402.0 163.0 L 390.0 161.0 Z M 300.0 212.0 L 300.0 210.0 L 301.0 209.0 L 302.0 204.0 L 304.0 201.0 L 304.0 199.0 L 305.0 198.0 L 305.0 196.0 L 306.0 195.0 L 307.0 190.0 L 310.0 185.0 L 368.0 185.0 L 369.0 186.0 L 373.0 186.0 L 374.0 187.0 L 376.0 187.0 L 379.0 190.0 L 379.0 191.0 L 380.0 192.0 L 380.0 198.0 L 379.0 199.0 L 379.0 201.0 L 378.0 202.0 L 377.0 205.0 L 372.0 210.0 L 371.0 210.0 L 368.0 212.0 L 365.0 212.0 L 364.0 213.0 L 301.0 213.0 Z"/>
<path id="yellow" fill="#F9C400" fill-rule="evenodd" d="M 808.0 1022.0 L 808.0 1027.0 L 893.0 1027.0 L 893.0 1022.0 Z M 352.0 1022.0 L 352.0 1027.0 L 431.0 1027.0 L 431.0 1022.0 Z M 827.0 666.0 L 810.0 684.0 L 771.0 714.0 L 754.0 733.0 L 745.0 748.0 L 739.0 764.0 L 736.0 778.0 L 736.0 792.0 L 738.0 797.0 L 742.0 800.0 L 764.0 810.0 L 778.0 822.0 L 787.0 838.0 L 789.0 852.0 L 813.0 834.0 L 829.0 818.0 L 831.0 820.0 L 807.0 855.0 L 787.0 875.0 L 768.0 900.0 L 743.0 926.0 L 719.0 946.0 L 752.0 927.0 L 812.0 884.0 L 850.0 828.0 L 871.0 789.0 L 883.0 761.0 L 892.0 734.0 L 897.0 709.0 L 885.0 726.0 L 871.0 739.0 L 821.0 768.0 L 810.0 780.0 L 802.0 799.0 L 799.0 799.0 L 795.0 782.0 L 795.0 759.0 L 797.0 746.0 L 805.0 719.0 Z M 315.0 400.0 L 313.0 426.0 L 313.0 469.0 L 316.0 511.0 L 322.0 550.0 L 340.0 538.0 L 334.0 472.0 L 334.0 436.0 L 336.0 416.0 L 613.0 350.0 L 900.0 415.0 L 902.0 417.0 L 903.0 476.0 L 901.0 506.0 L 907.0 530.0 L 910.0 566.0 L 918.0 519.0 L 922.0 473.0 L 922.0 422.0 L 920.0 399.0 L 611.0 330.0 Z"/>
<path id="blue" fill="#0057A8" fill-rule="evenodd" d="M 540.0 921.0 L 540.0 949.0 L 539.0 950.0 L 544.0 952.0 L 546.0 954.0 L 547.0 954.0 L 550.0 956.0 L 552.0 956.0 L 554.0 958.0 L 556.0 958.0 L 558.0 960.0 L 559.0 960.0 L 560.0 961.0 L 561.0 961.0 L 562.0 962.0 L 563.0 962.0 L 564.0 963.0 L 565.0 963.0 L 566.0 964.0 L 567.0 964.0 L 578.0 970.0 L 580.0 970.0 L 587.0 974.0 L 589.0 974.0 L 596.0 978.0 L 598.0 978.0 L 599.0 979.0 L 600.0 979.0 L 603.0 981.0 L 605.0 981.0 L 606.0 982.0 L 606.0 944.0 L 605.0 944.0 L 604.0 943.0 L 601.0 943.0 L 600.0 942.0 L 597.0 942.0 L 596.0 941.0 L 593.0 941.0 L 592.0 940.0 L 590.0 940.0 L 589.0 939.0 L 586.0 939.0 L 585.0 938.0 L 583.0 938.0 L 582.0 937.0 L 580.0 937.0 L 579.0 936.0 L 577.0 936.0 L 576.0 935.0 L 574.0 935.0 L 573.0 934.0 L 571.0 934.0 L 570.0 933.0 L 568.0 933.0 L 567.0 932.0 L 565.0 932.0 L 564.0 931.0 L 559.0 930.0 L 556.0 928.0 L 554.0 928.0 L 551.0 926.0 L 549.0 926.0 Z"/>
<path id="black" fill="#111111" fill-rule="evenodd" d="M 815.0 1060.0 L 815.0 1083.0 L 829.0 1083.0 L 829.0 1081.0 L 828.0 1080.0 L 820.0 1080.0 L 819.0 1079.0 L 819.0 1074.0 L 820.0 1073.0 L 827.0 1073.0 L 827.0 1070.0 L 821.0 1070.0 L 819.0 1068.0 L 819.0 1064.0 L 820.0 1063.0 L 828.0 1063.0 L 829.0 1060.0 Z M 803.0 1060.0 L 799.0 1060.0 L 798.0 1061.0 L 799.0 1062.0 L 799.0 1082.0 L 798.0 1083.0 L 799.0 1084.0 L 800.0 1083.0 L 803.0 1083.0 Z M 768.0 1060.0 L 768.0 1083.0 L 780.0 1083.0 L 781.0 1082.0 L 784.0 1081.0 L 787.0 1076.0 L 787.0 1067.0 L 786.0 1066.0 L 786.0 1065.0 L 782.0 1061.0 L 780.0 1061.0 L 779.0 1060.0 Z M 773.0 1063.0 L 778.0 1063.0 L 779.0 1064.0 L 780.0 1064.0 L 782.0 1066.0 L 782.0 1068.0 L 783.0 1069.0 L 783.0 1075.0 L 782.0 1076.0 L 782.0 1077.0 L 778.0 1080.0 L 773.0 1080.0 L 772.0 1079.0 L 772.0 1064.0 Z M 736.0 1060.0 L 736.0 1083.0 L 740.0 1083.0 L 740.0 1068.0 L 741.0 1067.0 L 743.0 1069.0 L 743.0 1070.0 L 744.0 1071.0 L 747.0 1078.0 L 749.0 1080.0 L 750.0 1083.0 L 755.0 1083.0 L 755.0 1076.0 L 756.0 1075.0 L 756.0 1072.0 L 755.0 1071.0 L 755.0 1060.0 L 752.0 1060.0 L 752.0 1075.0 L 751.0 1076.0 L 749.0 1074.0 L 749.0 1073.0 L 748.0 1072.0 L 745.0 1065.0 L 743.0 1063.0 L 742.0 1060.0 Z M 712.0 1060.0 L 712.0 1066.0 L 711.0 1067.0 L 711.0 1080.0 L 712.0 1081.0 L 712.0 1082.0 L 711.0 1083.0 L 725.0 1083.0 L 725.0 1080.0 L 716.0 1080.0 L 715.0 1079.0 L 716.0 1078.0 L 715.0 1077.0 L 716.0 1076.0 L 716.0 1074.0 L 717.0 1073.0 L 723.0 1073.0 L 724.0 1072.0 L 724.0 1070.0 L 717.0 1070.0 L 715.0 1068.0 L 715.0 1065.0 L 717.0 1063.0 L 725.0 1063.0 L 725.0 1060.0 Z M 690.0 1060.0 L 689.0 1061.0 L 688.0 1061.0 L 684.0 1065.0 L 684.0 1066.0 L 683.0 1067.0 L 683.0 1077.0 L 684.0 1078.0 L 684.0 1079.0 L 687.0 1082.0 L 688.0 1082.0 L 691.0 1084.0 L 697.0 1084.0 L 700.0 1082.0 L 700.0 1079.0 L 699.0 1079.0 L 696.0 1081.0 L 691.0 1080.0 L 688.0 1077.0 L 688.0 1076.0 L 687.0 1075.0 L 687.0 1069.0 L 688.0 1068.0 L 688.0 1067.0 L 692.0 1063.0 L 698.0 1063.0 L 699.0 1064.0 L 700.0 1064.0 L 700.0 1061.0 L 699.0 1060.0 Z M 653.0 1060.0 L 652.0 1061.0 L 653.0 1062.0 L 653.0 1082.0 L 652.0 1083.0 L 656.0 1083.0 L 656.0 1067.0 L 657.0 1066.0 L 658.0 1067.0 L 658.0 1068.0 L 659.0 1069.0 L 662.0 1076.0 L 664.0 1078.0 L 666.0 1083.0 L 672.0 1083.0 L 672.0 1060.0 L 668.0 1060.0 L 668.0 1075.0 L 667.0 1076.0 L 665.0 1074.0 L 665.0 1072.0 L 663.0 1070.0 L 663.0 1069.0 L 662.0 1068.0 L 661.0 1065.0 L 659.0 1063.0 L 658.0 1060.0 Z M 636.0 1060.0 L 636.0 1083.0 L 640.0 1083.0 L 640.0 1060.0 Z M 600.0 1060.0 L 600.0 1083.0 L 613.0 1083.0 L 613.0 1080.0 L 605.0 1080.0 L 604.0 1079.0 L 604.0 1074.0 L 605.0 1073.0 L 611.0 1073.0 L 612.0 1072.0 L 612.0 1070.0 L 605.0 1070.0 L 604.0 1069.0 L 604.0 1064.0 L 605.0 1063.0 L 613.0 1063.0 L 613.0 1060.0 Z M 572.0 1060.0 L 572.0 1063.0 L 578.0 1063.0 L 579.0 1064.0 L 579.0 1083.0 L 583.0 1083.0 L 583.0 1064.0 L 584.0 1063.0 L 590.0 1063.0 L 590.0 1060.0 Z M 557.0 1060.0 L 557.0 1083.0 L 561.0 1083.0 L 561.0 1060.0 Z M 530.0 1060.0 L 530.0 1083.0 L 534.0 1083.0 L 534.0 1075.0 L 535.0 1074.0 L 538.0 1074.0 L 539.0 1075.0 L 539.0 1076.0 L 541.0 1079.0 L 541.0 1081.0 L 542.0 1082.0 L 542.0 1083.0 L 546.0 1083.0 L 545.0 1078.0 L 542.0 1073.0 L 542.0 1072.0 L 545.0 1069.0 L 545.0 1063.0 L 541.0 1060.0 Z M 534.0 1064.0 L 535.0 1063.0 L 539.0 1063.0 L 541.0 1065.0 L 541.0 1068.0 L 538.0 1071.0 L 535.0 1071.0 L 534.0 1070.0 Z M 498.0 1060.0 L 498.0 1077.0 L 499.0 1078.0 L 499.0 1080.0 L 502.0 1083.0 L 504.0 1083.0 L 505.0 1084.0 L 510.0 1084.0 L 511.0 1083.0 L 513.0 1083.0 L 516.0 1080.0 L 516.0 1079.0 L 517.0 1078.0 L 517.0 1060.0 L 513.0 1060.0 L 513.0 1077.0 L 509.0 1081.0 L 507.0 1081.0 L 503.0 1078.0 L 503.0 1077.0 L 502.0 1076.0 L 502.0 1060.0 Z M 476.0 1060.0 L 475.0 1061.0 L 474.0 1061.0 L 471.0 1064.0 L 471.0 1065.0 L 469.0 1068.0 L 469.0 1076.0 L 470.0 1077.0 L 470.0 1079.0 L 473.0 1082.0 L 474.0 1082.0 L 477.0 1084.0 L 483.0 1084.0 L 486.0 1082.0 L 486.0 1079.0 L 485.0 1080.0 L 483.0 1080.0 L 482.0 1081.0 L 479.0 1081.0 L 478.0 1080.0 L 477.0 1080.0 L 474.0 1077.0 L 474.0 1075.0 L 473.0 1074.0 L 473.0 1069.0 L 474.0 1068.0 L 474.0 1067.0 L 478.0 1063.0 L 484.0 1063.0 L 485.0 1064.0 L 486.0 1064.0 L 486.0 1061.0 L 485.0 1060.0 Z M 445.0 1060.0 L 445.0 1083.0 L 459.0 1083.0 L 459.0 1080.0 L 450.0 1080.0 L 449.0 1079.0 L 449.0 1074.0 L 450.0 1073.0 L 457.0 1073.0 L 458.0 1072.0 L 458.0 1070.0 L 451.0 1070.0 L 449.0 1068.0 L 449.0 1065.0 L 451.0 1063.0 L 459.0 1063.0 L 459.0 1060.0 Z M 424.0 1060.0 L 420.0 1063.0 L 420.0 1069.0 L 423.0 1072.0 L 428.0 1074.0 L 430.0 1076.0 L 430.0 1078.0 L 427.0 1081.0 L 425.0 1081.0 L 424.0 1080.0 L 422.0 1080.0 L 421.0 1079.0 L 420.0 1079.0 L 419.0 1082.0 L 420.0 1082.0 L 423.0 1084.0 L 428.0 1084.0 L 429.0 1083.0 L 431.0 1083.0 L 434.0 1080.0 L 434.0 1074.0 L 431.0 1071.0 L 426.0 1069.0 L 424.0 1067.0 L 424.0 1064.0 L 425.0 1063.0 L 431.0 1063.0 L 432.0 1064.0 L 433.0 1063.0 L 433.0 1061.0 L 432.0 1061.0 L 431.0 1060.0 Z M 611.0 1053.0 L 608.0 1053.0 L 605.0 1057.0 L 608.0 1057.0 L 611.0 1054.0 Z M 457.0 1053.0 L 454.0 1053.0 L 451.0 1056.0 L 451.0 1057.0 L 454.0 1057.0 L 457.0 1054.0 Z M 762.0 1033.0 L 761.0 1034.0 L 759.0 1034.0 L 759.0 1039.0 L 757.0 1042.0 L 760.0 1042.0 L 761.0 1041.0 L 761.0 1040.0 L 763.0 1037.0 L 763.0 1034.0 Z M 727.0 1015.0 L 727.0 1037.0 L 728.0 1038.0 L 730.0 1038.0 L 731.0 1037.0 L 731.0 1024.0 L 730.0 1023.0 L 731.0 1022.0 L 732.0 1022.0 L 735.0 1026.0 L 735.0 1027.0 L 736.0 1028.0 L 737.0 1031.0 L 739.0 1033.0 L 740.0 1036.0 L 742.0 1038.0 L 745.0 1038.0 L 746.0 1037.0 L 746.0 1015.0 L 742.0 1015.0 L 742.0 1028.0 L 743.0 1029.0 L 742.0 1030.0 L 741.0 1030.0 L 740.0 1029.0 L 740.0 1028.0 L 739.0 1027.0 L 737.0 1022.0 L 735.0 1020.0 L 733.0 1015.0 Z M 675.0 1015.0 L 675.0 1037.0 L 676.0 1038.0 L 679.0 1038.0 L 679.0 1015.0 Z M 504.0 1015.0 L 504.0 1038.0 L 507.0 1038.0 L 508.0 1037.0 L 508.0 1029.0 L 509.0 1028.0 L 511.0 1028.0 L 514.0 1031.0 L 515.0 1036.0 L 517.0 1038.0 L 520.0 1038.0 L 520.0 1036.0 L 519.0 1035.0 L 518.0 1030.0 L 515.0 1027.0 L 519.0 1024.0 L 519.0 1018.0 L 516.0 1015.0 Z M 508.0 1018.0 L 509.0 1017.0 L 512.0 1017.0 L 515.0 1020.0 L 515.0 1023.0 L 513.0 1025.0 L 509.0 1025.0 L 508.0 1024.0 Z M 487.0 1015.0 L 476.0 1015.0 L 476.0 1038.0 L 479.0 1038.0 L 480.0 1037.0 L 480.0 1030.0 L 481.0 1029.0 L 486.0 1029.0 L 487.0 1028.0 L 488.0 1028.0 L 491.0 1025.0 L 491.0 1018.0 Z M 481.0 1017.0 L 483.0 1017.0 L 487.0 1020.0 L 487.0 1024.0 L 485.0 1026.0 L 481.0 1026.0 L 480.0 1025.0 L 480.0 1018.0 Z M 701.0 1014.0 L 700.0 1015.0 L 698.0 1015.0 L 696.0 1017.0 L 695.0 1017.0 L 695.0 1018.0 L 693.0 1020.0 L 693.0 1023.0 L 692.0 1024.0 L 692.0 1029.0 L 693.0 1030.0 L 693.0 1032.0 L 694.0 1033.0 L 694.0 1034.0 L 697.0 1037.0 L 699.0 1037.0 L 700.0 1038.0 L 706.0 1038.0 L 707.0 1037.0 L 709.0 1037.0 L 713.0 1033.0 L 713.0 1031.0 L 714.0 1030.0 L 714.0 1021.0 L 713.0 1020.0 L 713.0 1019.0 L 709.0 1015.0 L 707.0 1015.0 L 706.0 1014.0 Z M 702.0 1017.0 L 704.0 1017.0 L 705.0 1018.0 L 706.0 1018.0 L 709.0 1021.0 L 709.0 1022.0 L 710.0 1023.0 L 710.0 1029.0 L 709.0 1030.0 L 708.0 1033.0 L 705.0 1035.0 L 701.0 1035.0 L 697.0 1031.0 L 697.0 1028.0 L 696.0 1027.0 L 696.0 1025.0 L 697.0 1024.0 L 697.0 1021.0 L 700.0 1018.0 L 701.0 1018.0 Z M 663.0 1014.0 L 662.0 1015.0 L 646.0 1015.0 L 646.0 1017.0 L 647.0 1018.0 L 652.0 1018.0 L 653.0 1019.0 L 653.0 1038.0 L 657.0 1038.0 L 657.0 1019.0 L 658.0 1018.0 L 663.0 1018.0 L 664.0 1017.0 L 664.0 1015.0 Z M 634.0 1014.0 L 632.0 1014.0 L 631.0 1015.0 L 631.0 1030.0 L 630.0 1031.0 L 629.0 1030.0 L 629.0 1028.0 L 628.0 1027.0 L 627.0 1024.0 L 625.0 1022.0 L 623.0 1017.0 L 621.0 1015.0 L 616.0 1015.0 L 616.0 1038.0 L 619.0 1038.0 L 619.0 1022.0 L 620.0 1021.0 L 622.0 1023.0 L 623.0 1026.0 L 625.0 1028.0 L 628.0 1035.0 L 631.0 1038.0 L 634.0 1038.0 L 635.0 1037.0 L 635.0 1015.0 Z M 590.0 1014.0 L 590.0 1038.0 L 603.0 1038.0 L 603.0 1035.0 L 595.0 1035.0 L 594.0 1034.0 L 594.0 1028.0 L 595.0 1027.0 L 602.0 1027.0 L 602.0 1024.0 L 595.0 1024.0 L 594.0 1023.0 L 594.0 1018.0 L 595.0 1017.0 L 596.0 1018.0 L 602.0 1018.0 L 603.0 1017.0 L 603.0 1015.0 L 591.0 1015.0 Z M 558.0 1014.0 L 557.0 1015.0 L 558.0 1016.0 L 558.0 1018.0 L 559.0 1019.0 L 559.0 1021.0 L 560.0 1022.0 L 560.0 1024.0 L 561.0 1025.0 L 561.0 1027.0 L 562.0 1028.0 L 562.0 1030.0 L 563.0 1031.0 L 564.0 1036.0 L 565.0 1037.0 L 565.0 1038.0 L 569.0 1038.0 L 572.0 1033.0 L 572.0 1031.0 L 573.0 1030.0 L 573.0 1028.0 L 574.0 1027.0 L 574.0 1025.0 L 575.0 1024.0 L 575.0 1022.0 L 576.0 1021.0 L 576.0 1019.0 L 577.0 1018.0 L 577.0 1016.0 L 578.0 1015.0 L 574.0 1015.0 L 573.0 1016.0 L 573.0 1018.0 L 572.0 1019.0 L 572.0 1021.0 L 571.0 1022.0 L 571.0 1024.0 L 570.0 1025.0 L 570.0 1027.0 L 569.0 1028.0 L 569.0 1031.0 L 568.0 1032.0 L 567.0 1032.0 L 566.0 1031.0 L 566.0 1028.0 L 565.0 1027.0 L 565.0 1025.0 L 564.0 1024.0 L 564.0 1022.0 L 563.0 1021.0 L 563.0 1018.0 L 562.0 1017.0 L 562.0 1015.0 L 561.0 1015.0 L 560.0 1014.0 L 559.0 1015.0 Z M 534.0 1014.0 L 533.0 1015.0 L 533.0 1038.0 L 545.0 1038.0 L 546.0 1037.0 L 546.0 1035.0 L 538.0 1035.0 L 537.0 1034.0 L 537.0 1028.0 L 538.0 1027.0 L 545.0 1027.0 L 545.0 1024.0 L 538.0 1024.0 L 537.0 1023.0 L 537.0 1019.0 L 538.0 1018.0 L 545.0 1018.0 L 546.0 1017.0 L 546.0 1015.0 L 544.0 1015.0 L 543.0 1014.0 Z M 544.0 1008.0 L 540.0 1008.0 L 540.0 1009.0 L 538.0 1011.0 L 538.0 1012.0 L 540.0 1012.0 L 541.0 1011.0 L 542.0 1011.0 L 542.0 1010.0 Z M 718.0 442.0 L 690.0 434.0 L 672.0 431.0 L 617.0 430.0 L 580.0 436.0 L 550.0 445.0 L 518.0 460.0 L 537.0 460.0 L 538.0 461.0 L 455.0 507.0 L 434.0 515.0 L 383.0 529.0 L 349.0 545.0 L 333.0 556.0 L 316.0 572.0 L 304.0 588.0 L 295.0 607.0 L 291.0 625.0 L 291.0 633.0 L 304.0 610.0 L 319.0 591.0 L 335.0 575.0 L 354.0 561.0 L 379.0 549.0 L 428.0 537.0 L 461.0 525.0 L 488.0 511.0 L 536.0 481.0 L 584.0 457.0 L 566.0 454.0 L 568.0 452.0 L 589.0 445.0 L 612.0 440.0 L 632.0 438.0 L 664.0 439.0 L 693.0 444.0 L 720.0 453.0 L 737.0 462.0 L 755.0 476.0 L 765.0 487.0 L 763.0 488.0 L 754.0 485.0 L 775.0 505.0 L 797.0 516.0 L 816.0 530.0 L 804.0 534.0 L 800.0 539.0 L 800.0 543.0 L 807.0 553.0 L 805.0 554.0 L 795.0 547.0 L 790.0 541.0 L 790.0 536.0 L 794.0 530.0 L 789.0 524.0 L 758.0 506.0 L 755.0 508.0 L 743.0 500.0 L 723.0 491.0 L 705.0 487.0 L 682.0 487.0 L 639.0 494.0 L 633.0 489.0 L 624.0 485.0 L 606.0 485.0 L 599.0 488.0 L 591.0 496.0 L 587.0 506.0 L 587.0 522.0 L 561.0 537.0 L 498.0 595.0 L 455.0 626.0 L 430.0 639.0 L 387.0 657.0 L 366.0 671.0 L 365.0 670.0 L 370.0 661.0 L 384.0 643.0 L 397.0 630.0 L 428.0 605.0 L 401.0 613.0 L 377.0 617.0 L 356.0 623.0 L 339.0 631.0 L 319.0 646.0 L 305.0 663.0 L 301.0 671.0 L 301.0 675.0 L 308.0 699.0 L 320.0 729.0 L 347.0 779.0 L 373.0 815.0 L 415.0 860.0 L 447.0 888.0 L 490.0 920.0 L 539.0 950.0 L 539.0 921.0 L 496.0 898.0 L 473.0 882.0 L 449.0 862.0 L 418.0 829.0 L 397.0 798.0 L 398.0 796.0 L 446.0 842.0 L 495.0 878.0 L 546.0 905.0 L 574.0 916.0 L 604.0 924.0 L 596.0 884.0 L 581.0 845.0 L 570.0 832.0 L 546.0 817.0 L 547.0 797.0 L 554.0 771.0 L 562.0 754.0 L 571.0 741.0 L 580.0 732.0 L 582.0 750.0 L 589.0 764.0 L 643.0 818.0 L 652.0 832.0 L 657.0 850.0 L 665.0 858.0 L 676.0 862.0 L 722.0 863.0 L 723.0 855.0 L 719.0 845.0 L 710.0 836.0 L 713.0 835.0 L 721.0 839.0 L 728.0 846.0 L 734.0 863.0 L 750.0 862.0 L 747.0 846.0 L 735.0 833.0 L 736.0 832.0 L 745.0 835.0 L 753.0 842.0 L 758.0 850.0 L 760.0 863.0 L 767.0 862.0 L 773.0 857.0 L 774.0 848.0 L 768.0 832.0 L 757.0 821.0 L 731.0 809.0 L 723.0 801.0 L 715.0 784.0 L 683.0 734.0 L 672.0 711.0 L 664.0 682.0 L 663.0 656.0 L 667.0 635.0 L 678.0 614.0 L 666.0 621.0 L 654.0 633.0 L 620.0 679.0 L 562.0 738.0 L 548.0 755.0 L 547.0 754.0 L 561.0 729.0 L 605.0 678.0 L 627.0 647.0 L 594.0 663.0 L 593.0 661.0 L 619.0 633.0 L 633.0 622.0 L 670.0 601.0 L 705.0 591.0 L 745.0 589.0 L 786.0 592.0 L 800.0 589.0 L 811.0 582.0 L 816.0 572.0 L 824.0 567.0 L 831.0 555.0 L 835.0 545.0 L 834.0 534.0 L 814.0 518.0 L 780.0 498.0 L 777.0 490.0 L 769.0 478.0 L 749.0 459.0 L 737.0 451.0 Z M 508.0 860.0 L 509.0 859.0 L 511.0 859.0 L 512.0 860.0 L 517.0 861.0 L 519.0 863.0 L 520.0 863.0 L 524.0 867.0 L 524.0 868.0 L 526.0 870.0 L 526.0 871.0 L 527.0 872.0 L 527.0 876.0 L 528.0 877.0 L 526.0 879.0 L 522.0 879.0 L 521.0 878.0 L 521.0 875.0 L 520.0 874.0 L 518.0 869.0 L 510.0 861.0 L 509.0 861.0 Z M 528.0 853.0 L 529.0 853.0 L 530.0 854.0 L 532.0 854.0 L 533.0 855.0 L 538.0 857.0 L 546.0 865.0 L 546.0 866.0 L 548.0 869.0 L 548.0 872.0 L 549.0 873.0 L 549.0 876.0 L 547.0 879.0 L 544.0 879.0 L 543.0 878.0 L 543.0 875.0 L 542.0 874.0 L 542.0 872.0 L 541.0 871.0 L 541.0 869.0 L 540.0 868.0 L 540.0 867.0 L 538.0 865.0 L 538.0 864.0 L 530.0 856.0 L 529.0 856.0 L 527.0 854.0 Z M 533.0 595.0 L 535.0 596.0 L 506.0 638.0 L 486.0 675.0 L 474.0 706.0 L 468.0 732.0 L 476.0 743.0 L 495.0 790.0 L 507.0 813.0 L 515.0 821.0 L 550.0 836.0 L 563.0 848.0 L 570.0 864.0 L 570.0 877.0 L 568.0 879.0 L 565.0 878.0 L 559.0 860.0 L 547.0 847.0 L 532.0 838.0 L 508.0 829.0 L 497.0 819.0 L 484.0 795.0 L 464.0 750.0 L 445.0 731.0 L 425.0 719.0 L 432.0 718.0 L 449.0 721.0 L 455.0 700.0 L 474.0 664.0 L 500.0 629.0 Z M 723.0 564.0 L 724.0 563.0 L 726.0 563.0 L 727.0 564.0 L 730.0 564.0 L 731.0 565.0 L 734.0 565.0 L 735.0 566.0 L 738.0 566.0 L 739.0 567.0 L 742.0 567.0 L 743.0 568.0 L 746.0 568.0 L 747.0 569.0 L 750.0 569.0 L 751.0 570.0 L 755.0 570.0 L 756.0 571.0 L 759.0 571.0 L 760.0 572.0 L 765.0 572.0 L 766.0 573.0 L 774.0 573.0 L 775.0 574.0 L 790.0 574.0 L 791.0 573.0 L 796.0 573.0 L 797.0 572.0 L 800.0 572.0 L 801.0 571.0 L 804.0 571.0 L 805.0 570.0 L 806.0 570.0 L 807.0 571.0 L 804.0 574.0 L 803.0 574.0 L 798.0 577.0 L 793.0 578.0 L 792.0 579.0 L 787.0 579.0 L 786.0 580.0 L 778.0 580.0 L 777.0 579.0 L 768.0 579.0 L 767.0 578.0 L 762.0 578.0 L 761.0 577.0 L 757.0 577.0 L 756.0 576.0 L 753.0 576.0 L 752.0 575.0 L 750.0 575.0 L 749.0 574.0 L 746.0 574.0 L 743.0 572.0 L 741.0 572.0 L 740.0 571.0 L 738.0 571.0 L 735.0 569.0 L 733.0 569.0 L 730.0 567.0 L 728.0 567.0 Z M 809.0 547.0 L 810.0 546.0 L 814.0 546.0 L 815.0 547.0 L 813.0 549.0 L 811.0 549.0 Z M 809.0 539.0 L 812.0 537.0 L 815.0 537.0 L 816.0 536.0 L 825.0 536.0 L 829.0 540.0 L 829.0 541.0 L 828.0 542.0 L 828.0 545.0 L 826.0 548.0 L 825.0 547.0 L 825.0 543.0 L 824.0 542.0 L 824.0 541.0 L 823.0 541.0 L 822.0 540.0 L 819.0 540.0 L 818.0 539.0 L 814.0 539.0 L 813.0 540.0 L 810.0 540.0 Z M 715.0 513.0 L 717.0 515.0 L 717.0 517.0 L 715.0 519.0 L 716.0 520.0 L 716.0 521.0 L 715.0 522.0 L 714.0 522.0 L 712.0 520.0 L 712.0 515.0 Z M 701.0 515.0 L 706.0 511.0 L 711.0 510.0 L 712.0 511.0 L 709.0 515.0 L 709.0 521.0 L 712.0 525.0 L 713.0 525.0 L 716.0 527.0 L 721.0 526.0 L 724.0 524.0 L 724.0 523.0 L 726.0 521.0 L 726.0 516.0 L 727.0 515.0 L 730.0 518.0 L 730.0 520.0 L 729.0 521.0 L 729.0 523.0 L 728.0 524.0 L 728.0 525.0 L 722.0 531.0 L 720.0 531.0 L 719.0 532.0 L 711.0 532.0 L 707.0 529.0 L 706.0 529.0 L 702.0 524.0 L 702.0 523.0 L 701.0 522.0 Z M 695.0 508.0 L 701.0 502.0 L 702.0 502.0 L 707.0 499.0 L 710.0 499.0 L 711.0 498.0 L 713.0 498.0 L 714.0 499.0 L 718.0 499.0 L 719.0 500.0 L 721.0 500.0 L 725.0 503.0 L 726.0 503.0 L 728.0 505.0 L 728.0 506.0 L 732.0 510.0 L 732.0 511.0 L 731.0 512.0 L 727.0 508.0 L 726.0 508.0 L 723.0 506.0 L 721.0 506.0 L 720.0 505.0 L 706.0 505.0 L 705.0 506.0 L 703.0 506.0 L 702.0 507.0 L 699.0 508.0 L 697.0 510.0 L 696.0 510.0 L 695.0 509.0 Z M 611.0 494.0 L 619.0 494.0 L 620.0 495.0 L 623.0 495.0 L 624.0 496.0 L 629.0 498.0 L 637.0 506.0 L 637.0 507.0 L 633.0 511.0 L 628.0 507.0 L 627.0 507.0 L 624.0 505.0 L 621.0 505.0 L 620.0 504.0 L 616.0 504.0 L 615.0 505.0 L 613.0 505.0 L 612.0 506.0 L 611.0 506.0 L 608.0 509.0 L 608.0 511.0 L 607.0 512.0 L 607.0 521.0 L 608.0 522.0 L 608.0 524.0 L 609.0 525.0 L 609.0 526.0 L 610.0 527.0 L 613.0 534.0 L 616.0 537.0 L 616.0 538.0 L 615.0 539.0 L 613.0 537.0 L 610.0 536.0 L 603.0 530.0 L 603.0 529.0 L 600.0 526.0 L 600.0 525.0 L 598.0 522.0 L 597.0 517.0 L 596.0 516.0 L 596.0 510.0 L 597.0 509.0 L 597.0 506.0 L 598.0 505.0 L 599.0 502.0 L 604.0 497.0 L 605.0 497.0 L 608.0 495.0 L 610.0 495.0 Z"/>
</svg>